<?xml version="1.0" standalone="no"?>
<!DOCTYPE svg PUBLIC "-//W3C//DTD SVG 20010904//EN"
 "http://www.w3.org/TR/2001/REC-SVG-20010904/DTD/svg10.dtd">
<svg version="1.0" xmlns="http://www.w3.org/2000/svg"
 width="512.000000pt" height="512.000000pt" viewBox="0 0 512.000000 512.000000"
 preserveAspectRatio="xMidYMid meet">
<metadata>
Created by potrace 1.14, written by Peter Selinger 2001-2017
</metadata>
<g transform="translate(0.000000,512.000000) scale(0.100000,-0.100000)"
fill="#000000" stroke="none">
<path d="M0 2560 l0 -2560 2560 0 2560 0 0 2560 0 2560 -2560 0 -2560 0 0
-2560z m2589 1687 c13 -45 31 -99 39 -119 l14 -38 124 0 c68 0 124 -3 124 -7
0 -5 -41 -37 -91 -73 -50 -36 -94 -69 -99 -75 -5 -6 7 -59 29 -125 21 -63 37
-117 35 -119 -2 -2 -46 29 -100 68 -53 39 -100 71 -105 71 -8 0 -112 -73 -155
-108 -5 -5 -20 -14 -31 -21 l-22 -11 19 63 c10 34 27 88 39 120 l20 57 -52 38
c-29 21 -73 53 -99 72 -27 18 -48 37 -48 42 0 4 55 8 123 8 142 0 124 -14 172
142 17 54 32 98 35 98 3 0 16 -37 29 -83z m-863 -259 l26 -87 131 -3 131 -3
-102 -73 c-56 -40 -102 -79 -102 -86 0 -7 16 -61 36 -120 20 -59 34 -109 32
-111 -1 -2 -49 30 -104 70 l-102 73 -98 -74 c-55 -40 -102 -73 -106 -74 -4 0
-2 17 6 38 19 52 66 196 66 203 0 4 -33 29 -72 57 -40 28 -86 62 -103 76 l-30
25 130 1 130 0 39 122 38 122 14 -34 c7 -19 25 -74 40 -122z m1761 32 l38
-119 130 -3 130 -3 -102 -75 c-57 -41 -103 -79 -103 -85 0 -5 16 -57 35 -114
20 -58 34 -108 33 -112 -2 -4 -48 26 -103 66 l-100 73 -30 -21 c-16 -12 -34
-25 -40 -30 -45 -36 -131 -95 -134 -92 -2 2 13 57 34 121 20 64 33 120 28 124
-4 4 -51 38 -103 76 l-95 69 131 3 131 3 37 119 c21 66 39 120 41 120 2 0 21
-54 42 -120z m-2502 -537 l40 -118 128 0 c70 0 127 -1 127 -2 0 -1 -45 -34
-100 -74 -55 -40 -100 -80 -100 -88 0 -9 16 -63 34 -121 19 -58 32 -106 31
-108 -2 -2 -47 29 -101 68 -54 39 -103 68 -111 66 -7 -3 -53 -35 -103 -72 -50
-36 -92 -65 -94 -63 -2 2 14 58 35 124 22 66 35 121 31 123 -14 4 -187 132
-190 140 -1 4 51 6 116 4 90 -3 121 0 129 10 6 7 25 61 43 121 19 59 36 107
39 107 4 0 24 -53 46 -117z m3235 2 c17 -55 36 -106 43 -113 8 -10 39 -13 129
-10 65 2 118 0 118 -3 0 -3 -44 -37 -97 -74 -54 -38 -100 -70 -101 -71 -2 -1
14 -57 36 -123 22 -67 37 -121 35 -121 -3 0 -45 29 -94 65 -49 36 -95 68 -102
71 -7 2 -58 -27 -112 -65 -55 -39 -100 -69 -102 -68 -1 2 13 52 32 112 19 61
35 115 35 120 0 6 -45 44 -100 84 -55 39 -100 73 -100 74 0 1 57 2 127 2 l128
0 40 117 c21 65 42 115 46 110 4 -4 21 -52 39 -107z m-1470 -220 c6 -8 9 -23
5 -35 -6 -19 -14 -20 -118 -20 l-112 0 -145 -145 -145 -145 286 0 c227 1 294
-2 321 -13 57 -24 115 -102 237 -319 169 -302 257 -425 426 -594 155 -156 306
-265 468 -339 l87 -40 0 -217 0 -218 -1217 0 -1218 1 -107 119 -108 119 0 390
0 391 39 127 c72 239 170 462 243 556 l30 37 251 0 252 0 -145 145 -145 145
-106 0 c-117 0 -141 10 -119 49 11 21 16 21 519 21 432 0 510 -2 521 -15z
m-750 -2225 l0 -60 260 0 260 0 0 60 0 60 770 0 770 0 0 -59 0 -59 -507 -5
c-349 -3 -522 -8 -553 -16 -63 -17 -153 -64 -233 -122 l-67 -49 -645 0 -645 0
0 95 0 95 110 0 110 0 0 60 0 60 185 0 185 0 0 -60z"/>
<path d="M2050 3203 c0 -5 41 -48 90 -98 l90 -89 90 89 c50 49 90 93 90 97 0
5 -81 8 -180 8 -99 0 -180 -3 -180 -7z"/>
<path d="M1796 2811 c-19 -21 -166 -386 -166 -412 0 -9 9 -28 21 -43 l20 -26
560 0 c546 0 559 0 579 20 25 25 25 61 0 139 -11 34 -34 115 -51 179 -18 66
-41 127 -52 140 l-20 22 -437 0 c-418 0 -438 -1 -454 -19z"/>
<path d="M3068 1992 l-3 -261 95 -41 c52 -23 101 -44 108 -47 9 -4 12 43 12
215 l0 220 -52 38 c-29 20 -76 60 -105 87 l-52 51 -3 -262z"/>
<path d="M3370 1803 l0 -210 80 -37 c43 -20 84 -36 90 -36 6 0 10 60 10 174
l0 173 -42 28 c-23 15 -64 48 -90 73 l-48 45 0 -210z"/>
<path d="M1764 1830 c-41 -27 -69 -88 -60 -134 24 -128 192 -151 252 -34 60
115 -81 239 -192 168z"/>
<path d="M2499 1827 c-41 -28 -59 -60 -59 -110 0 -57 25 -96 75 -118 46 -20
75 -19 127 8 52 25 75 114 45 173 -18 37 -74 70 -117 70 -22 0 -51 -9 -71 -23z"/>
<path d="M3660 1629 l0 -145 55 -27 c31 -15 60 -27 65 -27 6 0 10 54 10 135
l0 134 -47 21 c-26 11 -55 28 -65 37 -17 15 -18 10 -18 -128z"/>
<path d="M3905 1592 c-3 -3 -5 -50 -5 -104 l0 -99 46 -19 c25 -11 50 -20 55
-20 5 0 9 44 9 98 l0 97 -50 26 c-27 15 -52 24 -55 21z"/>
</g>
</svg>
